<svg width="357" height="21" viewBox="0 0 357 21" fill="none" xmlns="http://www.w3.org/2000/svg">
<path d="M21.336 12.68C21.16 14.2 20.624 15.544 19.728 16.712C18.848 17.864 17.68 18.76 16.224 19.4C14.784 20.04 13.136 20.36 11.28 20.36C9.232 20.36 7.432 19.968 5.88 19.184C4.344 18.4 3.144 17.312 2.28 15.92C1.416 14.512 0.984 12.872 0.984 11C0.984 9.128 1.416 7.496 2.28 6.104C3.144 4.696 4.344 3.6 5.88 2.816C7.432 2.032 9.232 1.64 11.28 1.64C13.136 1.64 14.784 1.96 16.224 2.6C17.68 3.24 18.848 4.136 19.728 5.288C20.624 6.44 21.16 7.784 21.336 9.32H17.232C17.072 8.472 16.728 7.744 16.2 7.136C15.672 6.512 14.992 6.032 14.16 5.696C13.328 5.36 12.36 5.192 11.256 5.192C9.992 5.192 8.896 5.432 7.968 5.912C7.056 6.376 6.352 7.048 5.856 7.928C5.36 8.792 5.112 9.816 5.112 11C5.112 12.184 5.36 13.216 5.856 14.096C6.352 14.96 7.056 15.632 7.968 16.112C8.896 16.576 9.992 16.808 11.256 16.808C12.36 16.808 13.328 16.648 14.16 16.328C14.992 15.992 15.672 15.52 16.2 14.912C16.728 14.288 17.072 13.544 17.232 12.68H21.336ZM36.141 20L35.565 15.008L36.213 13.184L35.565 11.384L36.141 6.344H40.293L39.501 13.184L40.293 20H36.141ZM37.197 13.184C36.941 14.624 36.469 15.888 35.781 16.976C35.109 18.048 34.253 18.88 33.213 19.472C32.189 20.064 31.037 20.36 29.757 20.36C28.429 20.36 27.253 20.064 26.229 19.472C25.205 18.864 24.405 18.024 23.829 16.952C23.269 15.864 22.989 14.608 22.989 13.184C22.989 11.744 23.269 10.488 23.829 9.416C24.405 8.328 25.205 7.488 26.229 6.896C27.253 6.288 28.429 5.984 29.757 5.984C31.037 5.984 32.189 6.28 33.213 6.872C34.253 7.464 35.117 8.304 35.805 9.392C36.493 10.464 36.957 11.728 37.197 13.184ZM27.045 13.184C27.045 13.984 27.205 14.688 27.525 15.296C27.861 15.904 28.317 16.384 28.893 16.736C29.469 17.072 30.133 17.24 30.885 17.24C31.637 17.24 32.341 17.072 32.997 16.736C33.669 16.384 34.261 15.904 34.773 15.296C35.285 14.688 35.685 13.984 35.973 13.184C35.685 12.384 35.285 11.68 34.773 11.072C34.261 10.448 33.669 9.968 32.997 9.632C32.341 9.28 31.637 9.104 30.885 9.104C30.133 9.104 29.469 9.28 28.893 9.632C28.317 9.968 27.861 10.448 27.525 11.072C27.205 11.68 27.045 12.384 27.045 13.184ZM42.3249 6.344H46.3809L47.1969 11.264V20H43.1889V10.832L42.3249 6.344ZM53.8449 6.2V9.656C53.4289 9.56 53.0129 9.488 52.5969 9.44C52.1809 9.392 51.7889 9.368 51.4209 9.368C50.6209 9.368 49.9009 9.536 49.2609 9.872C48.6209 10.208 48.1169 10.728 47.7489 11.432C47.3809 12.136 47.1969 13.024 47.1969 14.096L46.3569 13.088C46.4529 12.112 46.6289 11.2 46.8849 10.352C47.1409 9.488 47.4929 8.736 47.9409 8.096C48.4049 7.44 48.9729 6.928 49.6449 6.56C50.3169 6.176 51.1169 5.984 52.0449 5.984C52.3489 5.984 52.6529 6.008 52.9569 6.056C53.2769 6.088 53.5729 6.136 53.8449 6.2ZM70.3703 15.704C70.3703 16.68 70.0823 17.52 69.5063 18.224C68.9463 18.928 68.1063 19.464 66.9863 19.832C65.8663 20.184 64.4983 20.36 62.8823 20.36C61.2183 20.36 59.7703 20.16 58.5383 19.76C57.3063 19.344 56.3463 18.76 55.6583 18.008C54.9703 17.256 54.6023 16.384 54.5543 15.392H58.6343C58.7303 15.84 58.9703 16.232 59.3543 16.568C59.7383 16.888 60.2343 17.136 60.8423 17.312C61.4663 17.488 62.1863 17.576 63.0023 17.576C64.1383 17.576 64.9943 17.448 65.5703 17.192C66.1623 16.936 66.4583 16.552 66.4583 16.04C66.4583 15.672 66.2503 15.392 65.8343 15.2C65.4343 15.008 64.6903 14.864 63.6023 14.768L61.0583 14.576C59.5383 14.448 58.3303 14.192 57.4342 13.808C56.5383 13.424 55.8983 12.944 55.5143 12.368C55.1463 11.776 54.9623 11.128 54.9623 10.424C54.9623 9.448 55.2663 8.632 55.8743 7.976C56.4823 7.32 57.3303 6.824 58.4183 6.488C59.5223 6.152 60.7943 5.984 62.2343 5.984C63.7063 5.984 65.0183 6.184 66.1703 6.584C67.3223 6.984 68.2423 7.536 68.9303 8.24C69.6343 8.944 70.0343 9.76 70.1303 10.688H66.0503C65.9863 10.352 65.8023 10.04 65.4983 9.752C65.2103 9.448 64.7863 9.2 64.2263 9.008C63.6663 8.816 62.9383 8.72 62.0423 8.72C61.0343 8.72 60.2583 8.84 59.7143 9.08C59.1703 9.304 58.8983 9.648 58.8983 10.112C58.8983 10.432 59.0663 10.696 59.4023 10.904C59.7383 11.096 60.3623 11.232 61.2743 11.312L64.5863 11.576C66.0583 11.704 67.2183 11.952 68.0663 12.32C68.9143 12.672 69.5063 13.136 69.8423 13.712C70.1943 14.288 70.3703 14.952 70.3703 15.704ZM98.6329 12.68C98.4569 14.2 97.9209 15.544 97.0249 16.712C96.1449 17.864 94.9769 18.76 93.5209 19.4C92.0809 20.04 90.4329 20.36 88.5769 20.36C86.5289 20.36 84.7289 19.968 83.1769 19.184C81.6409 18.4 80.4409 17.312 79.5769 15.92C78.7129 14.512 78.2809 12.872 78.2809 11C78.2809 9.128 78.7129 7.496 79.5769 6.104C80.4409 4.696 81.6409 3.6 83.1769 2.816C84.7289 2.032 86.5289 1.64 88.5769 1.64C90.4329 1.64 92.0809 1.96 93.5209 2.6C94.9769 3.24 96.1449 4.136 97.0249 5.288C97.9209 6.44 98.4569 7.784 98.6329 9.32H94.5289C94.3689 8.472 94.0249 7.744 93.4969 7.136C92.9689 6.512 92.2889 6.032 91.4569 5.696C90.6249 5.36 89.6569 5.192 88.5529 5.192C87.2889 5.192 86.1929 5.432 85.2649 5.912C84.3529 6.376 83.6489 7.048 83.1529 7.928C82.6569 8.792 82.4089 9.816 82.4089 11C82.4089 12.184 82.6569 13.216 83.1529 14.096C83.6489 14.96 84.3529 15.632 85.2649 16.112C86.1929 16.576 87.2889 16.808 88.5529 16.808C89.6569 16.808 90.6249 16.648 91.4569 16.328C92.2889 15.992 92.9689 15.52 93.4969 14.912C94.0249 14.288 94.3689 13.544 94.5289 12.68H98.6329ZM100.934 1.52H104.942V20H100.934V1.52ZM120.469 20L119.893 15.008L120.541 13.184L119.893 11.384L120.469 6.344H124.621L123.829 13.184L124.621 20H120.469ZM121.525 13.184C121.269 14.624 120.797 15.888 120.109 16.976C119.437 18.048 118.581 18.88 117.541 19.472C116.517 20.064 115.365 20.36 114.085 20.36C112.757 20.36 111.581 20.064 110.557 19.472C109.533 18.864 108.733 18.024 108.157 16.952C107.597 15.864 107.317 14.608 107.317 13.184C107.317 11.744 107.597 10.488 108.157 9.416C108.733 8.328 109.533 7.488 110.557 6.896C111.581 6.288 112.757 5.984 114.085 5.984C115.365 5.984 116.517 6.28 117.541 6.872C118.581 7.464 119.445 8.304 120.133 9.392C120.821 10.464 121.285 11.728 121.525 13.184ZM111.373 13.184C111.373 13.984 111.533 14.688 111.853 15.296C112.189 15.904 112.645 16.384 113.221 16.736C113.797 17.072 114.461 17.24 115.213 17.24C115.965 17.24 116.669 17.072 117.325 16.736C117.997 16.384 118.589 15.904 119.101 15.296C119.613 14.688 120.013 13.984 120.301 13.184C120.013 12.384 119.613 11.68 119.101 11.072C118.589 10.448 117.997 9.968 117.325 9.632C116.669 9.28 115.965 9.104 115.213 9.104C114.461 9.104 113.797 9.28 113.221 9.632C112.645 9.968 112.189 10.448 111.853 11.072C111.533 11.68 111.373 12.384 111.373 13.184ZM142.23 15.704C142.23 16.68 141.942 17.52 141.366 18.224C140.806 18.928 139.966 19.464 138.846 19.832C137.726 20.184 136.358 20.36 134.742 20.36C133.078 20.36 131.63 20.16 130.398 19.76C129.166 19.344 128.206 18.76 127.518 18.008C126.83 17.256 126.462 16.384 126.414 15.392H130.494C130.59 15.84 130.83 16.232 131.214 16.568C131.598 16.888 132.094 17.136 132.702 17.312C133.326 17.488 134.046 17.576 134.862 17.576C135.998 17.576 136.854 17.448 137.43 17.192C138.022 16.936 138.318 16.552 138.318 16.04C138.318 15.672 138.11 15.392 137.694 15.2C137.294 15.008 136.55 14.864 135.462 14.768L132.918 14.576C131.398 14.448 130.19 14.192 129.294 13.808C128.398 13.424 127.758 12.944 127.374 12.368C127.006 11.776 126.822 11.128 126.822 10.424C126.822 9.448 127.126 8.632 127.734 7.976C128.342 7.32 129.19 6.824 130.278 6.488C131.382 6.152 132.654 5.984 134.094 5.984C135.566 5.984 136.878 6.184 138.03 6.584C139.182 6.984 140.102 7.536 140.79 8.24C141.494 8.944 141.894 9.76 141.99 10.688H137.91C137.846 10.352 137.662 10.04 137.358 9.752C137.07 9.448 136.646 9.2 136.086 9.008C135.526 8.816 134.798 8.72 133.902 8.72C132.894 8.72 132.118 8.84 131.574 9.08C131.03 9.304 130.758 9.648 130.758 10.112C130.758 10.432 130.926 10.696 131.262 10.904C131.598 11.096 132.222 11.232 133.134 11.312L136.446 11.576C137.918 11.704 139.078 11.952 139.926 12.32C140.774 12.672 141.366 13.136 141.702 13.712C142.054 14.288 142.23 14.952 142.23 15.704ZM159.48 15.704C159.48 16.68 159.192 17.52 158.616 18.224C158.056 18.928 157.216 19.464 156.096 19.832C154.976 20.184 153.608 20.36 151.992 20.36C150.328 20.36 148.88 20.16 147.648 19.76C146.416 19.344 145.456 18.76 144.768 18.008C144.08 17.256 143.712 16.384 143.664 15.392H147.744C147.84 15.84 148.08 16.232 148.464 16.568C148.848 16.888 149.344 17.136 149.952 17.312C150.576 17.488 151.296 17.576 152.112 17.576C153.248 17.576 154.104 17.448 154.68 17.192C155.272 16.936 155.568 16.552 155.568 16.04C155.568 15.672 155.36 15.392 154.944 15.2C154.544 15.008 153.8 14.864 152.712 14.768L150.168 14.576C148.648 14.448 147.44 14.192 146.544 13.808C145.648 13.424 145.008 12.944 144.624 12.368C144.256 11.776 144.072 11.128 144.072 10.424C144.072 9.448 144.376 8.632 144.984 7.976C145.592 7.32 146.44 6.824 147.528 6.488C148.632 6.152 149.904 5.984 151.344 5.984C152.816 5.984 154.128 6.184 155.28 6.584C156.432 6.984 157.352 7.536 158.04 8.24C158.744 8.944 159.144 9.76 159.24 10.688H155.16C155.096 10.352 154.912 10.04 154.608 9.752C154.32 9.448 153.896 9.2 153.336 9.008C152.776 8.816 152.048 8.72 151.152 8.72C150.144 8.72 149.368 8.84 148.824 9.08C148.28 9.304 148.008 9.648 148.008 10.112C148.008 10.432 148.176 10.696 148.512 10.904C148.848 11.096 149.472 11.232 150.384 11.312L153.696 11.576C155.168 11.704 156.328 11.952 157.176 12.32C158.024 12.672 158.616 13.136 158.952 13.712C159.304 14.288 159.48 14.952 159.48 15.704ZM161.778 6.2L163.77 6.584L165.786 6.2V20H161.778V6.2ZM163.77 4.784C163.05 4.784 162.458 4.6 161.994 4.232C161.546 3.848 161.322 3.344 161.322 2.72C161.322 2.08 161.546 1.576 161.994 1.208C162.458 0.823999 163.05 0.631999 163.77 0.631999C164.506 0.631999 165.098 0.823999 165.546 1.208C165.994 1.576 166.218 2.08 166.218 2.72C166.218 3.344 165.994 3.848 165.546 4.232C165.098 4.6 164.506 4.784 163.77 4.784ZM184.481 14.432C184.321 15.6 183.865 16.632 183.113 17.528C182.377 18.424 181.425 19.12 180.257 19.616C179.089 20.112 177.785 20.36 176.345 20.36C174.713 20.36 173.273 20.064 172.025 19.472C170.793 18.864 169.825 18.016 169.121 16.928C168.433 15.84 168.089 14.592 168.089 13.184C168.089 11.76 168.433 10.512 169.121 9.44C169.825 8.352 170.793 7.504 172.025 6.896C173.273 6.288 174.713 5.984 176.345 5.984C177.785 5.984 179.089 6.24 180.257 6.752C181.425 7.248 182.377 7.944 183.113 8.84C183.865 9.72 184.321 10.752 184.481 11.936H180.473C180.265 11.008 179.785 10.296 179.033 9.8C178.297 9.288 177.401 9.032 176.345 9.032C175.497 9.032 174.753 9.2 174.113 9.536C173.489 9.856 173.009 10.328 172.673 10.952C172.337 11.56 172.169 12.304 172.169 13.184C172.169 14.048 172.337 14.792 172.673 15.416C173.009 16.024 173.489 16.496 174.113 16.832C174.753 17.152 175.497 17.312 176.345 17.312C177.417 17.312 178.321 17.048 179.057 16.52C179.809 15.992 180.281 15.296 180.473 14.432H184.481ZM195.183 16.208V12.896H207.663V16.208H195.183ZM204.135 2L212.559 20H208.215L200.847 3.656H202.191L194.823 20H190.479L198.903 2H204.135ZM219.241 20.36C217.977 20.36 216.897 20.104 216.001 19.592C215.121 19.064 214.441 18.32 213.961 17.36C213.497 16.4 213.265 15.264 213.265 13.952V6.344H217.273V13.352C217.273 14.568 217.561 15.496 218.137 16.136C218.713 16.76 219.529 17.072 220.585 17.072C221.369 17.072 222.033 16.912 222.577 16.592C223.137 16.256 223.569 15.776 223.873 15.152C224.177 14.528 224.329 13.8 224.329 12.968L225.625 13.664C225.465 15.072 225.089 16.28 224.497 17.288C223.905 18.28 223.153 19.04 222.241 19.568C221.345 20.096 220.345 20.36 219.241 20.36ZM225.169 20L224.329 14.816V6.344H228.337V15.416L229.177 20H225.169ZM230.136 9.368V7.592L232.992 6.656L234.696 2.744H237V6.344H243.048V9.368H237V14.336C237 15.392 237.216 16.136 237.648 16.568C238.096 16.984 238.864 17.192 239.952 17.192C240.64 17.192 241.248 17.128 241.776 17C242.304 16.872 242.808 16.688 243.288 16.448V19.568C242.824 19.76 242.208 19.936 241.44 20.096C240.672 20.272 239.88 20.36 239.064 20.36C237.64 20.36 236.48 20.136 235.584 19.688C234.704 19.224 234.048 18.584 233.616 17.768C233.2 16.952 232.992 16 232.992 14.912V9.368H230.136ZM252.805 20.36C251.109 20.36 249.621 20.064 248.341 19.472C247.061 18.864 246.061 18.024 245.341 16.952C244.621 15.864 244.261 14.608 244.261 13.184C244.261 11.744 244.621 10.488 245.341 9.416C246.061 8.328 247.061 7.488 248.341 6.896C249.621 6.288 251.109 5.984 252.805 5.984C254.501 5.984 255.989 6.288 257.269 6.896C258.549 7.488 259.541 8.328 260.245 9.416C260.965 10.488 261.325 11.744 261.325 13.184C261.325 14.608 260.965 15.864 260.245 16.952C259.541 18.024 258.549 18.864 257.269 19.472C255.989 20.064 254.501 20.36 252.805 20.36ZM252.805 17.312C253.733 17.312 254.525 17.144 255.181 16.808C255.853 16.472 256.365 16 256.717 15.392C257.085 14.768 257.269 14.032 257.269 13.184C257.269 12.32 257.085 11.584 256.717 10.976C256.365 10.352 255.853 9.872 255.181 9.536C254.525 9.2 253.733 9.032 252.805 9.032C251.893 9.032 251.101 9.2 250.429 9.536C249.757 9.872 249.237 10.352 248.869 10.976C248.517 11.584 248.341 12.32 248.341 13.184C248.341 14.032 248.517 14.768 248.869 15.392C249.237 16 249.757 16.472 250.429 16.808C251.101 17.144 251.893 17.312 252.805 17.312ZM262.011 9.368V7.592L264.867 6.656L266.571 2.744H268.875V6.344H274.923V9.368H268.875V14.336C268.875 15.392 269.091 16.136 269.523 16.568C269.971 16.984 270.739 17.192 271.827 17.192C272.515 17.192 273.123 17.128 273.651 17C274.179 16.872 274.683 16.688 275.163 16.448V19.568C274.699 19.76 274.083 19.936 273.315 20.096C272.547 20.272 271.755 20.36 270.939 20.36C269.515 20.36 268.355 20.136 267.459 19.688C266.579 19.224 265.923 18.584 265.491 17.768C265.075 16.952 264.867 16 264.867 14.912V9.368H262.011ZM276.653 6.344H280.709L281.525 11.264V20H277.517V10.832L276.653 6.344ZM288.173 6.2V9.656C287.757 9.56 287.341 9.488 286.925 9.44C286.509 9.392 286.117 9.368 285.749 9.368C284.949 9.368 284.229 9.536 283.589 9.872C282.949 10.208 282.445 10.728 282.077 11.432C281.709 12.136 281.525 13.024 281.525 14.096L280.685 13.088C280.781 12.112 280.957 11.2 281.213 10.352C281.469 9.488 281.821 8.736 282.269 8.096C282.733 7.44 283.301 6.928 283.973 6.56C284.645 6.176 285.445 5.984 286.373 5.984C286.677 5.984 286.981 6.008 287.285 6.056C287.605 6.088 287.901 6.136 288.173 6.2ZM302.133 20L301.557 15.008L302.205 13.184L301.557 11.384L302.133 6.344H306.285L305.493 13.184L306.285 20H302.133ZM303.189 13.184C302.933 14.624 302.461 15.888 301.773 16.976C301.101 18.048 300.245 18.88 299.205 19.472C298.181 20.064 297.029 20.36 295.749 20.36C294.421 20.36 293.245 20.064 292.221 19.472C291.197 18.864 290.397 18.024 289.821 16.952C289.261 15.864 288.981 14.608 288.981 13.184C288.981 11.744 289.261 10.488 289.821 9.416C290.397 8.328 291.197 7.488 292.221 6.896C293.245 6.288 294.421 5.984 295.749 5.984C297.029 5.984 298.181 6.28 299.205 6.872C300.245 7.464 301.109 8.304 301.797 9.392C302.485 10.464 302.949 11.728 303.189 13.184ZM293.037 13.184C293.037 13.984 293.197 14.688 293.517 15.296C293.853 15.904 294.309 16.384 294.885 16.736C295.461 17.072 296.125 17.24 296.877 17.24C297.629 17.24 298.333 17.072 298.989 16.736C299.661 16.384 300.253 15.904 300.765 15.296C301.277 14.688 301.677 13.984 301.965 13.184C301.677 12.384 301.277 11.68 300.765 11.072C300.253 10.448 299.661 9.968 298.989 9.632C298.333 9.28 297.629 9.104 296.877 9.104C296.125 9.104 295.461 9.28 294.885 9.632C294.309 9.968 293.853 10.448 293.517 11.072C293.197 11.68 293.037 12.384 293.037 13.184ZM321.494 20L320.918 14.84L321.686 13.208L320.942 11.216L322.022 1.52H326.174L324.854 12.896L325.646 20H321.494ZM322.478 13.184C322.222 14.624 321.75 15.888 321.062 16.976C320.39 18.048 319.534 18.88 318.494 19.472C317.47 20.064 316.318 20.36 315.038 20.36C313.71 20.36 312.534 20.064 311.51 19.472C310.486 18.864 309.686 18.024 309.11 16.952C308.55 15.864 308.27 14.608 308.27 13.184C308.27 11.744 308.55 10.488 309.11 9.416C309.686 8.328 310.486 7.488 311.51 6.896C312.534 6.288 313.71 5.984 315.038 5.984C316.318 5.984 317.47 6.28 318.494 6.872C319.534 7.464 320.398 8.304 321.086 9.392C321.774 10.464 322.238 11.728 322.478 13.184ZM312.326 13.184C312.326 13.984 312.486 14.688 312.806 15.296C313.142 15.904 313.598 16.384 314.174 16.736C314.75 17.072 315.414 17.24 316.166 17.24C316.918 17.24 317.622 17.072 318.278 16.736C318.95 16.384 319.542 15.904 320.054 15.296C320.566 14.688 320.966 13.984 321.254 13.184C320.966 12.384 320.566 11.68 320.054 11.072C319.542 10.448 318.95 9.968 318.278 9.632C317.622 9.28 316.918 9.104 316.166 9.104C315.414 9.104 314.75 9.28 314.174 9.632C313.598 9.968 313.142 10.448 312.806 11.072C312.486 11.68 312.326 12.384 312.326 13.184ZM335.958 20.36C334.342 20.36 332.894 20.064 331.614 19.472C330.35 18.864 329.35 18.016 328.614 16.928C327.894 15.84 327.534 14.576 327.534 13.136C327.534 11.712 327.878 10.464 328.566 9.392C329.27 8.32 330.23 7.488 331.446 6.896C332.662 6.288 334.046 5.984 335.598 5.984C337.182 5.984 338.542 6.336 339.678 7.04C340.814 7.728 341.686 8.704 342.294 9.968C342.918 11.232 343.23 12.72 343.23 14.432H330.75V11.768H341.07L339.51 12.728C339.446 11.928 339.246 11.248 338.91 10.688C338.59 10.128 338.15 9.696 337.59 9.392C337.03 9.088 336.374 8.936 335.622 8.936C334.806 8.936 334.094 9.104 333.486 9.44C332.894 9.76 332.43 10.216 332.094 10.808C331.774 11.384 331.614 12.064 331.614 12.848C331.614 13.792 331.822 14.6 332.238 15.272C332.654 15.944 333.262 16.456 334.062 16.808C334.862 17.16 335.83 17.336 336.966 17.336C337.99 17.336 339.022 17.192 340.062 16.904C341.102 16.6 342.038 16.176 342.87 15.632V18.32C341.974 18.96 340.926 19.464 339.726 19.832C338.542 20.184 337.286 20.36 335.958 20.36ZM344.903 6.344H348.959L349.775 11.264V20H345.767V10.832L344.903 6.344ZM356.423 6.2V9.656C356.007 9.56 355.591 9.488 355.175 9.44C354.759 9.392 354.367 9.368 353.999 9.368C353.199 9.368 352.479 9.536 351.839 9.872C351.199 10.208 350.695 10.728 350.327 11.432C349.959 12.136 349.775 13.024 349.775 14.096L348.935 13.088C349.031 12.112 349.207 11.2 349.463 10.352C349.719 9.488 350.071 8.736 350.519 8.096C350.983 7.44 351.551 6.928 352.223 6.56C352.895 6.176 353.695 5.984 354.623 5.984C354.927 5.984 355.231 6.008 355.535 6.056C355.855 6.088 356.151 6.136 356.423 6.2Z" fill="#3A3C35"/>
</svg>
